{
  "accessors": [
    {
      "bufferView": 2,
      "componentType": 5126,
      "count": 17616,
      "max": [
        2.9229938983917236,
        2.9643094539642334,
        -29.961406707763672
      ],
      "min": [
        -0.020181119441986084,
        1.3424668312072754,
        -30.663057327270508
      ],
      "type": "VEC3"
    },
    {
      "bufferView": 2,
      "byteOffset": 211392,
      "componentType": 5126,
      "count": 17616,
      "max": [
        1.0,
        1.0,
        0.9999436736106873
      ],
      "min": [
        -1.0,
        -1.0,
        -0.9999353885650635
      ],
      "type": "VEC3"
    },
    {
      "bufferView": 1,
      "componentType": 5126,
      "count": 17616,
      "max": [
        1.0,
        1.0
      ],
      "min": [
        -3.650784492492676e-07,
        -5.551115123125783e-16
      ],
      "type": "VEC2"
    },
    {
      "bufferView": 0,
      "componentType": 5125,
      "count": 53316,
      "type": "SCALAR"
    },
    {
      "bufferView": 2,
      "byteOffset": 422784,
      "componentType": 5126,
      "count": 7860,
      "max": [
        2.8326220512390137,
        2.7906525135040283,
        -30.24282455444336
      ],
      "min": [
        0.5861749649047852,
        2.498302936553955,
        -30.37727165222168
      ],
      "type": "VEC3"
    },
    {
      "bufferView": 2,
      "byteOffset": 517104,
      "componentType": 5126,
      "count": 7860,
      "max": [
        1.0,
        0.9945032596588135,
        0.9999995231628418
      ],
      "min": [
        -1.0,
        -0.9945092797279358,
        -0.999999463558197
      ],
      "type": "VEC3"
    },
    {
      "bufferView": 1,
      "byteOffset": 140928,
      "componentType": 5126,
      "count": 7860,
      "max": [
        1.0,
        1.0
      ],
      "min": [
        -3.650785629361053e-07,
        0.009999990463256836
      ],
      "type": "VEC2"
    },
    {
      "bufferView": 0,
      "byteOffset": 213264,
      "componentType": 5125,
      "count": 23736,
      "type": "SCALAR"
    }
  ],
  "asset": {
    "extras": {
      "author": "dayoung.ko (https://sketchfab.com/dayoung.ko)",
      "license": "CC-BY-4.0 (http://creativecommons.org/licenses/by/4.0/)",
      "source": "https://sketchfab.com/3d-models/velvet-rope-973169fc96f24a23ad56ec91a2dae4bf",
      "title": "Velvet Rope"
    },
    "generator": "Sketchfab-12.79.0",
    "version": "2.0"
  },
  "bufferViews": [
    {
      "buffer": 0,
      "byteLength": 308208,
      "name": "floatBufferViews",
      "target": 34963
    },
    {
      "buffer": 0,
      "byteLength": 203808,
      "byteOffset": 308208,
      "byteStride": 8,
      "name": "floatBufferViews",
      "target": 34962
    },
    {
      "buffer": 0,
      "byteLength": 611424,
      "byteOffset": 512016,
      "byteStride": 12,
      "name": "floatBufferViews",
      "target": 34962
    }
  ],
  "buffers": [
    {
      "byteLength": 1123440,
      "uri": "scene.bin"
    }
  ],
  "materials": [
    {
      "doubleSided": true,
      "name": "Material.001",
      "pbrMetallicRoughness": {
        "baseColorFactor": [
          0.326376,
          0.326376,
          0.326376,
          1.0
        ],
        "roughnessFactor": 0.0
      }
    },
    {
      "doubleSided": true,
      "name": "Material.002",
      "pbrMetallicRoughness": {
        "baseColorFactor": [
          0.698193,
          0.0443175,
          0.0,
          1.0
        ],
        "metallicFactor": 0.0,
        "roughnessFactor": 0.5
      }
    }
  ],
  "meshes": [
    {
      "name": "Object_0",
      "primitives": [
        {
          "attributes": {
            "NORMAL": 1,
            "POSITION": 0,
            "TEXCOORD_0": 2
          },
          "indices": 3,
          "material": 0,
          "mode": 4
        }
      ]
    },
    {
      "name": "Object_1",
      "primitives": [
        {
          "attributes": {
            "NORMAL": 5,
            "POSITION": 4,
            "TEXCOORD_0": 6
          },
          "indices": 7,
          "material": 1,
          "mode": 4
        }
      ]
    }
  ],
  "nodes": [
    {
      "children": [
        1
      ],
      "matrix": [
        1.0,
        0.0,
        0.0,
        0.0,
        0.0,
        2.220446049250313e-16,
        -1.0,
        0.0,
        0.0,
        1.0,
        2.220446049250313e-16,
        0.0,
        0.0,
        0.0,
        0.0,
        1.0
      ],
      "name": "Sketchfab_model"
    },
    {
      "children": [
        2
      ],
      "name": "root"
    },
    {
      "children": [
        3
      ],
      "matrix": [
        1.0,
        0.0,
        0.0,
        0.0,
        0.0,
        2.220446049250313e-16,
        1.0,
        0.0,
        0.0,
        -1.0,
        2.220446049250313e-16,
        0.0,
        0.0,
        0.0,
        0.0,
        1.0
      ],
      "name": "GLTF_SceneRootNode"
    },
    {
      "children": [
        4,
        5
      ],
      "matrix": [
        0.9659258239744086,
        0.0,
        0.2588190537409479,
        0.0,
        -0.0,
        1.0,
        0.0,
        0.0,
        -0.2588190537409479,
        -0.0,
        0.9659258239744086,
        0.0,
        -0.4129124879837036,
        -0.5633735656738281,
        -0.13782620429992676,
        1.0
      ],
      "name": "Cylinder.044_213"
    },
    {
      "mesh": 0,
      "name": "Object_4"
    },
    {
      "mesh": 1,
      "name": "Object_5"
    }
  ],
  "scene": 0,
  "scenes": [
    {
      "name": "Sketchfab_Scene",
      "nodes": [
        0
      ]
    }
  ]
}
